<svg width="20" height="20" viewBox="0 0 20 20" fill="none" xmlns="http://www.w3.org/2000/svg">
<path d="M10 0C4.477 0 0 4.477 0 10C0 15.523 4.477 20 10 20C15.523 20 20 15.523 20 10C20 4.477 15.523 0 10 0ZM10 1.449C12.1785 1.449 14.167 2.264 15.677 3.605C14.5675 5.0685 12.882 6.043 11.193 6.7025C10.2369 4.96117 9.16531 3.28576 7.9855 1.6875C8.64535 1.52845 9.32176 1.44839 10.0005 1.449H10ZM6.362 2.259C7.477 3.927 8.557 5.4735 9.5435 7.224C7.0485 7.8705 4.229 8.2585 1.6245 8.265C2.1735 5.601 3.963 3.389 6.362 2.2595V2.259ZM16.6255 4.594C17.8611 6.10398 18.5409 7.99242 18.551 9.9435C16.573 9.5535 14.606 9.4515 12.603 9.6535C12.378 9.092 12.105 8.5585 11.8435 7.9835C13.57 7.287 15.416 6.095 16.6255 4.5935V4.594ZM10.238 8.547C10.452 9.002 10.7 9.485 10.933 9.9785C8.148 11.2065 5.1855 12.8475 3.648 15.7245C2.172 14.0911 1.3854 11.9499 1.453 9.7495C4.4355 9.7355 7.363 9.3625 10.238 8.547ZM14.757 10.8785C16.0014 10.8788 17.2407 11.0384 18.4445 11.3535C18.2589 12.5116 17.837 13.6192 17.205 14.6072C16.573 15.5953 15.7445 16.4428 14.771 17.097C14.312 15.0095 13.8745 13.012 13.101 10.998C13.6492 10.9181 14.2025 10.878 14.7565 10.878L14.757 10.8785ZM18.489 11.0335C18.483 11.0825 18.4775 11.1305 18.4705 11.1785C18.4775 11.13 18.4835 11.082 18.489 11.0335ZM11.519 11.3885C12.307 13.425 12.9255 15.68 13.3405 17.8745C12.2841 18.3227 11.1481 18.553 10.0005 18.5515C8.09942 18.5542 6.25213 17.9206 4.753 16.7515C6.3015 14.2395 8.7 12.3385 11.5185 11.389L11.519 11.3885Z" fill="#2D2D2D"/>
</svg>
